<svg width="18" height="18" fill="none" xmlns="http://www.w3.org/2000/svg"><path d="M9 4.492c-.807 0-1.563.208-2.266.625a4.505 4.505 0 00-1.64 1.64 4.377 4.377 0 00-.586 2.227c0 .807.195 1.562.586 2.265a4.94 4.94 0 001.64 1.641A4.59 4.59 0 009 13.476c.807 0 1.55-.195 2.227-.586a4.504 4.504 0 001.64-1.64 4.368 4.368 0 00.625-2.266c0-.807-.208-1.55-.625-2.227a4.143 4.143 0 00-1.64-1.64A4.167 4.167 0 009 4.492zm0 7.422a2.822 2.822 0 01-2.07-.86 2.822 2.822 0 01-.86-2.07c0-.807.287-1.498.86-2.07A2.822 2.822 0 019 6.054c.807 0 1.497.287 2.07.86a2.82 2.82 0 01.86 2.07c0 .807-.287 1.497-.86 2.07a2.822 2.822 0 01-2.07.86zm5.742-7.618a1.171 1.171 0 01-.351.743.892.892 0 01-.704.312c-.286 0-.533-.104-.742-.312a1.014 1.014 0 01-.312-.743c0-.286.104-.533.312-.742.209-.208.456-.312.742-.312.287 0 .534.104.743.312.208.209.312.456.312.742zm2.969 1.055c-.052-.755-.17-1.406-.352-1.953a4.275 4.275 0 00-1.093-1.68 4.274 4.274 0 00-1.68-1.093c-.547-.183-1.198-.287-1.953-.313C11.903.26 10.693.234 9 .234S6.083.26 5.328.312C4.6.338 3.961.442 3.414.625a4.614 4.614 0 00-1.719 1.093 4.493 4.493 0 00-1.054 1.68c-.183.547-.3 1.198-.352 1.953-.026.73-.039 1.94-.039 3.633s.013 2.917.04 3.672c.051.729.168 1.367.35 1.914a4.868 4.868 0 001.055 1.719 4.432 4.432 0 001.72 1.015c.546.209 1.184.326 1.913.352.755.052 1.98.078 3.672.078 1.693 0 2.904-.026 3.633-.078.755-.026 1.406-.13 1.953-.313a4.493 4.493 0 001.68-1.054 4.614 4.614 0 001.093-1.72c.183-.546.287-1.184.313-1.913.052-.755.078-1.98.078-3.672 0-1.693-.013-2.904-.04-3.633zm-1.875 8.79c-.313.78-.873 1.34-1.68 1.679-.416.156-1.12.26-2.11.312-.546.026-1.353.04-2.421.04h-1.25a56.88 56.88 0 01-2.422-.04c-.963-.052-1.667-.156-2.11-.312-.78-.313-1.34-.873-1.679-1.68-.156-.443-.26-1.146-.312-2.11-.026-.572-.04-1.38-.04-2.421v-1.25c0-1.042.014-1.85.04-2.422.052-.99.156-1.693.312-2.11a2.82 2.82 0 011.68-1.68c.442-.155 1.146-.26 2.11-.312.572-.026 1.38-.039 2.421-.039h1.25c1.042 0 1.849.013 2.422.04.99.052 1.693.156 2.11.312a2.82 2.82 0 011.679 1.68c.156.416.26 1.12.312 2.109.026.547.04 1.354.04 2.422v1.25c0 1.042-.014 1.849-.04 2.422-.052.963-.156 1.666-.312 2.11z" fill="#fff"/></svg>