<svg width="20" height="18" fill="none" xmlns="http://www.w3.org/2000/svg"><path d="M17.93 4.921c.026.105.039.274.039.508 0 1.875-.456 3.685-1.367 5.43-.938 1.849-2.253 3.32-3.946 4.414-1.849 1.224-3.971 1.836-6.367 1.836-2.292 0-4.388-.612-6.289-1.836.286.026.612.039.977.039 1.9 0 3.606-.586 5.117-1.758-.912 0-1.719-.26-2.422-.781a4.236 4.236 0 01-1.406-2.031c.26.026.507.039.742.039.364 0 .729-.04 1.094-.117a4.133 4.133 0 01-2.344-1.446A3.932 3.932 0 01.82 6.64v-.078c.573.339 1.185.52 1.836.547a4.55 4.55 0 01-1.328-1.484A3.903 3.903 0 01.82 3.67c0-.729.196-1.419.586-2.07a11.372 11.372 0 008.438 4.297 5.694 5.694 0 01-.078-.938c0-.729.182-1.406.546-2.03a3.975 3.975 0 011.485-1.524 3.962 3.962 0 012.031-.547c.6 0 1.146.117 1.64.351.522.235.977.547 1.368.938a8.345 8.345 0 002.617-.977c-.312.964-.911 1.72-1.797 2.266A8.81 8.81 0 0020 2.773a9.016 9.016 0 01-2.07 2.148z" fill="#fff"/></svg>