<svg width="150" height="150" fill="none" xmlns="http://www.w3.org/2000/svg"><path d="M146.341 69.079c-1.407 0-6.754 1.974-9.568 3.102-.281-1.128-1.407-1.974-2.814-1.974s-2.815.846-2.815 1.974l-5.347-.846c-.844-11.56-5.347-21.71-12.382-29.888l3.095-4.51c.845.563 2.533.563 3.377-.565 1.126-1.128 1.408-2.537.563-3.383 2.815-1.128 8.162-3.384 9.006-4.512 1.126-1.41.281-4.229-1.689-6.485-2.251-1.973-5.065-2.82-6.472-1.691-1.126.846-3.378 6.203-4.503 9.022-.845-.564-2.533-.282-3.377.564-1.126 1.128-1.407 2.538-.563 3.384l-4.503 3.101a51.597 51.597 0 00-29.831-12.406l-.844-5.357c1.125-.282 1.97-1.41 1.97-2.82s-.845-2.537-1.97-2.82c1.125-2.819 3.095-8.176 3.095-9.586C80.488 1.41 77.955 0 74.86 0c-3.095 0-5.628 1.41-5.91 3.383 0 1.41 1.97 6.767 3.096 9.587-1.126.282-1.97 1.41-1.97 2.82s.844 2.819 1.97 2.819l-.844 5.357c-11.539.846-21.67 5.357-29.831 12.406l-4.503-3.101c.563-.846.563-2.538-.563-3.384-1.126-1.128-2.533-1.41-3.377-.564-1.126-2.82-3.377-7.894-4.503-9.022-1.407-1.128-4.221-.282-6.191 1.973-2.252 1.974-3.096 4.794-1.97 6.485.844 1.128 6.191 3.384 9.005 4.512-.563.846-.281 2.537.563 3.383 1.126 1.128 2.533 1.41 3.377.564l3.096 4.511A51.797 51.797 0 0023.92 71.617l-5.347.845c-.281-1.127-1.407-1.973-2.814-1.973s-2.533.846-2.814 1.973c-2.815-1.127-8.162-3.101-9.569-3.101C1.407 69.643 0 72.18 0 75.282c0 3.102 1.407 5.64 3.377 5.921 1.407 0 6.754-1.974 9.569-3.102.281 1.128 1.407 1.974 2.814 1.974s2.814-.846 2.814-1.974l5.347.846c.845 11.56 5.347 21.711 12.383 29.888l-2.814 4.229c-.845-.564-2.533-.564-3.377.564-1.126 1.128-1.408 2.537-.563 3.383-2.815 1.128-7.88 3.384-9.006 4.512-1.126 1.409-.281 4.229 1.689 6.485 2.251 2.255 5.065 3.101 6.472 1.691 1.126-.846 3.378-6.203 4.503-9.022.845.564 2.533.282 3.377-.564 1.126-1.128 1.407-2.538.563-3.384l4.503-3.101a51.599 51.599 0 0029.831 12.406l.844 5.357c-1.125.282-1.97 1.41-1.97 2.82 0 1.409.845 2.537 1.97 2.819-1.125 2.82-3.095 8.177-3.095 9.587.281 1.973 2.814 3.383 5.91 3.383 3.095 0 5.628-1.41 5.91-3.383 0-1.41-1.97-6.767-3.096-9.587 1.126-.282 1.97-1.41 1.97-2.819 0-1.41-.844-2.82-1.97-2.82l.844-5.357c11.539-.846 21.67-5.357 29.831-12.406l4.503 3.101c-.563.846-.563 2.538.563 3.384 1.126 1.128 2.533 1.41 3.377.564 1.126 2.819 3.377 8.176 4.503 9.022 1.407 1.128 4.221.282 6.473-1.691 2.251-2.256 3.095-5.076 1.688-6.485-.844-1.128-6.191-3.384-9.005-4.512.563-.846.281-2.537-.563-3.383-1.126-1.128-2.533-1.41-3.377-.564l-3.096-4.511a51.795 51.795 0 0012.383-29.888l5.347-.845c.281 1.127 1.407 1.973 2.814 1.973s2.533-.846 2.814-1.973c2.815 1.127 8.162 3.101 9.569 3.101C148.593 80.64 150 78.101 150 75c-.563-2.82-1.97-5.64-3.659-5.921zM30.957 76.974c-1.126 0-1.97-.846-1.97-1.974 0-1.128.844-1.974 1.97-1.974s1.97.846 1.97 1.974c0 1.128-.844 1.974-1.97 1.974zm73.452-34.399c.844-.846 1.97-.846 2.814 0 .845.846.845 1.974 0 2.82-.844.846-1.97.846-2.814 0a2.564 2.564 0 010-2.82zm-29.55-13.252c1.126 0 1.97.846 1.97 1.974 0 1.128-.844 1.974-1.97 1.974-1.125 0-1.97-.846-1.97-1.974 0-1.128.845-1.974 1.97-1.974zM42.495 42.575c.845-.846 1.97-.846 2.815 0 .844.846.844 1.974 0 2.82-.845.846-1.97.846-2.815 0a2.565 2.565 0 010-2.82zm5.066 8.177l2.251 2.255c.563.564 1.126.564 1.689.282l3.096 3.102c-.845 1.974 0 5.075 2.532 7.613 2.815 2.82 6.755 3.665 8.443 1.973-2.251 2.256-3.658 5.358-3.658 8.741v-.846H50.938c-.281 0-.563-.282-.563-.846 0-.564.282-.846.563-.846h11.539v-.282c0-.845-.845-1.691-1.689-1.691H49.812c-.563 0-1.97 1.692-2.814 3.101h-3.377c-.281-.564-.844-1.128-1.407-1.128h-3.659c.563-7.894 3.659-15.507 9.006-21.428zm-2.251 56.673c-.845.846-1.97.846-2.815 0-.844-.846-.844-1.974 0-2.82.845-.846 1.97-.846 2.815 0 .844.846.844 1.974 0 2.82zm2.251-8.177c-5.347-5.92-8.724-13.816-9.287-22.274h3.658c.563 0 1.408-.564 1.408-1.128h3.095c.845 1.41 2.252 3.383 2.814 3.383h10.976c.844 0 1.689-.564 1.689-1.41v-.563H50.938c-.281 0-.563-.282-.563-.846 0-.564.282-.846.563-.846h11.539v-.846c0 3.383 1.407 6.485 3.658 8.74-1.689-1.691-5.628-.845-8.443 1.974-2.532 2.538-3.377 5.64-2.532 7.613l-3.096 3.102c-.563-.282-1.407-.282-1.689.282l-2.814 2.82zm27.298 21.711c-1.125 0-1.97-.846-1.97-1.974 0-1.128.845-1.974 1.97-1.974 1.126 0 1.97.846 1.97 1.974 0 1.128-.844 1.974-1.97 1.974zm32.364-13.534c-.844.846-1.97.846-2.814 0-.844-.846-.844-1.974 0-2.82.844-.846 1.97-.846 2.814 0 .845.846.845 1.974 0 2.82zm-5.065-8.177l-2.252-2.255c-.563-.564-1.126-.564-1.688-.282l-3.096-3.102c.844-1.974 0-5.075-2.533-7.613-2.814-2.82-6.754-3.665-8.443-1.973-1.688 1.691-.844 5.639 1.97 8.458 2.533 2.538 5.629 3.384 7.599 2.538l3.096 3.101c-.282.564-.282 1.41.28 1.692l2.252 2.256c-5.91 5.357-13.508 8.74-21.95 9.304v-3.665c0-.564-.564-1.41-1.127-1.41v-3.383c1.126-.846 3.096-2.256 3.096-2.82V89.098c0-.846-.844-1.692-1.688-1.692h-.282v11.56c0 .282-.281.564-.844.564s-.844-.282-.844-.564V87.688h-1.689v11.278c0 .282-.281.564-.844.564s-.845-.282-.845-.564V87.688h-.562c-.845 0-1.407.846-1.407 1.692v10.996c0 .564 1.97 1.974 3.377 2.819v3.102c-.563.282-1.126.846-1.126 1.41v3.665c-8.443-.564-16.323-3.947-22.233-9.304l2.252-2.256c.563-.564.563-1.128.281-1.692l3.096-3.101c1.97.846 5.065 0 7.598-2.538 2.815-2.82 3.659-6.767 1.97-8.458 2.252 2.255 5.347 3.665 8.724 3.665 7.036 0 12.383-5.64 12.383-12.406 0-7.049-5.628-12.406-12.383-12.406-3.377 0-6.472 1.41-8.724 3.665 1.689-1.691.844-5.639-1.97-8.458-2.533-2.538-5.628-3.384-7.598-2.538l-3.096-3.101c.282-.564.282-1.41-.281-1.692l-2.252-2.256c5.91-5.357 13.79-8.74 22.233-9.304v3.665c0 .564.563 1.41 1.126 1.41v3.101c-1.407.846-3.377 2.256-3.377 2.82v10.996c0 .846.562 1.692 1.407 1.692h.563V51.034c0-.282.28-.564.844-.564.563 0 .844.282.844.564v11.56h1.689v-11.56c0-.282.281-.564.844-.564s.844.282.844.564v11.56h.282c.844 0 1.688-.846 1.688-1.692V49.906c0-.564-1.688-1.974-3.096-2.82v-3.383c.563-.282 1.126-.846 1.126-1.41v-3.665c8.443.564 16.041 3.947 21.951 9.022l-2.251 2.256c-.563.564-.563 1.128-.281 1.692l-3.096 3.101c-1.97-.846-5.066 0-7.599 2.538-2.814 2.82-3.658 6.767-1.97 8.458 1.689 1.692 5.629.846 8.443-1.973 2.533-2.538 3.377-5.64 2.533-7.613l3.096-3.102c.563.282 1.407.282 1.688-.281l2.252-2.256c5.347 5.921 8.724 13.534 9.287 21.992h-3.659c-.563 0-1.407.564-1.407 1.128h-3.377c-.844-1.128-2.252-3.101-2.814-3.101H89.212c-.844 0-1.689.846-1.689 1.691v.282h11.258c.28 0 .562.282.562.846 0 .564-.281.846-.563.846H87.523v1.41h11.258c.28 0 .562.282.562.846 0 .564-.281.846-.563.846H87.523v.564c0 .845.845 1.41 1.689 1.41h10.976c.562 0 1.97-1.974 2.814-3.384h3.096c.281.564.844 1.128 1.407 1.128h3.658c-.281 8.74-3.658 16.353-9.005 22.274zM66.979 75c0-4.23 3.377-7.895 7.88-7.895 4.222 0 7.88 3.384 7.88 7.895 0 4.23-3.377 7.895-7.88 7.895-4.221 0-7.88-3.384-7.88-7.895zm51.783 1.974c-1.126 0-1.97-.846-1.97-1.974 0-1.128.844-1.974 1.97-1.974 1.125 0 1.97.846 1.97 1.974 0 1.128-.845 1.974-1.97 1.974z" fill="#FFD600"/></svg>